<svg id="Camada_1" data-name="Camada 1" xmlns="http://www.w3.org/2000/svg" viewBox="0 0 217.67255 123.31841"><defs><style>.cls-1{fill:#fff;}</style></defs><path class="cls-1" d="M225.7404,71.84043c-4.65954-3.069-9.63727-5.90583-15.15329-7.078-10.09379-2.20961-18.99514,1.80394-25.68239,9.35434q-.3212.36279-.63493.73229c-3.491,4.10937-8.53222,11.801-11.6891,16.06267-1.78241,2.40632-3.03214,3.54533-4.16892,3.54533q-1.27548,0-1.2753-5.10664a86.94765,86.94765,0,0,1,.85014-10.51451c.56621-4.40267,1.17721-6.839,1.84151-11.44786q.98938-6.90718,2.40773-13.06806a58.288,58.288,0,0,1,2.83289-9.4623q.56486-1.80261-2.54969-2.40347a7.0021,7.0021,0,0,0-5.38258.901,11.546,11.546,0,0,0-2.975,3.15443,20.50321,20.50321,0,0,0-2.12471,4.35572,19.33513,19.33513,0,0,0-8.78241-3.75483,19.72384,19.72384,0,0,0-9.34881.751,20.33632,20.33632,0,0,0-10.76535,8.862c-.50964.83087-.97088,1.67371-1.40692,2.52285a52.59842,52.59842,0,0,1-8.5052,10.5447,57.18885,57.18885,0,0,1-11.61548,8.41115A89.9351,89.9351,0,0,0,106.088,66.33656c-.96962-1.74533-1.92981-3.50041-2.75384-5.32942-.36649-.8135-1.19331-3.07586-1.59943-4.19994a1.09334,1.09334,0,0,1,.21886-1.21935c3.59026-2.92484,9.06353-8.508,10.989-11.53379a9.47663,9.47663,0,0,0,.97524-8.36312c-2.3256-5.72951-9.50618-5.902-14.15575-3.61377-4.53117,2.23-7.22464,7.31375-7.55643,12.47981a61.545,61.545,0,0,0,.41918,10.95785C62.19662,67.35046,19.1793,58.714,19.1793,58.714c5.14921,1.5498,38.28645,10.83683,74.4099.13223a77.32473,77.32473,0,0,0,4.14119,11.09487q2.82809,6.16058,5.09938,12.76736A26.55237,26.55237,0,0,0,96.03084,86.764a20.88022,20.88022,0,0,0-5.09957,6.1583,11.41738,11.41738,0,0,0-1.41635,6.30841,9.12711,9.12711,0,0,0,6.37395,8.111,10.48234,10.48234,0,0,0,6.09076,0q9.06489-2.70394,11.19141-10.81466a27.9685,27.9685,0,0,0-.99228-16.82238,80.5341,80.5341,0,0,0,12.04065-8.56177,40.52155,40.52155,0,0,0,4.88979-5.19434,34.37541,34.37541,0,0,0-.92756,4.44338A29.33259,29.33259,0,0,0,129.315,83.91022q2.12481,6.3084,7.5082,8.111,3.96351,1.20375,6.09094-.75147a23.48912,23.48912,0,0,0,4.10729-5.25675,120.66225,120.66225,0,0,0,6.37486-12.16647q3.25262-7.05506,6.65788-13.9686-.57192,4.50579-.99228,9.91312-.42453,5.40707-.425,10.81462a79.12134,79.12134,0,0,0,.56712,9.91312,18.31023,18.31023,0,0,0,1.98257,6.90926q1.41554,2.40825,3.11682,2.70366a5.16787,5.16787,0,0,0,3.3991-.60039,15.03723,15.03723,0,0,0,3.4-2.55354,27.52222,27.52222,0,0,0,2.83289-3.15444q1.489-1.86665,2.95328-3.80559c5.42338-7.16458,10.62356-15.42846,18.59518-20.03452,9.68622-5.59661,20.4871-1.72788,29.436,3.53577,5.281,3.1063,6.23181,4.19295,11.932,6.52843C234.39789,77.37653,225.7404,71.84043,225.7404,71.84043ZM101.08127,37.38388c1.60313-3.02414,6.07825-5.23242,8.3926-1.70871,2.16678,3.29907-1.1085,7.99328-3.16431,10.39231-.86319,1.00746-5.6804,6.1698-6.21162,6.238C99.81678,51.15715,98.42015,42.40378,101.08127,37.38388Zm3.448,63.94957a6.34915,6.34915,0,0,1-3.1159,3.9054,6.158,6.158,0,0,1-4.81637.901,6.73837,6.73837,0,0,1-3.68321-2.403,9.57555,9.57555,0,0,1-1.84151-4.50625,8.57,8.57,0,0,1,.99228-5.40733,17.79369,17.79369,0,0,1,4.9576-5.8576,25.14054,25.14054,0,0,1,6.374-3.75532,37.2156,37.2156,0,0,1,1.41726,5.40733,32.58023,32.58023,0,0,1,.56621,6.00817A18.89632,18.89632,0,0,1,104.52932,101.33345Zm55.52483-45.36092q-3.68584,7.81538-7.5082,15.9213a143.52772,143.52772,0,0,1-6.94108,13.21763q-2.27057,3.60521-4.10728,4.20609-1.84578.60491-3.25787-2.70366a29.19532,29.19532,0,0,1-1.13334-8.71189,46.90467,46.90467,0,0,1,1.13334-10.21377,54.22538,54.22538,0,0,1,2.97394-9.4628,19.74429,19.74429,0,0,1,4.39121-6.75919q3.96488-3.302,7.93246-2.55354a21.14955,21.14955,0,0,1,7.93336,3.45513A28.02328,28.02328,0,0,1,160.05415,55.97253Z" transform="translate(-19.1793 -9.65369)"/><path class="cls-1" d="M74.78554,58.88758a56.89634,56.89634,0,0,1,56.14772-47.9707c.48809,0,.97839.00615,1.46786.01851A56.94686,56.94686,0,0,1,187.8348,69.23c-.00235.0946-.00843.18824-.01133.28271q.635-.53226,1.28416-1.02223a58.148,58.148,0,0,0-115.63484-9.398C73.91406,59.02718,74.3498,58.95743,74.78554,58.88758Z" transform="translate(-19.1793 -9.65369)"/><path class="cls-1" d="M186.68446,79.28374a56.95511,56.95511,0,0,1-21.79612,34.13186,54.26313,54.26313,0,0,1-15.96615,9.67587A58.31348,58.31348,0,0,0,188.296,77.48966Q187.47412,78.367,186.68446,79.28374Z" transform="translate(-19.1793 -9.65369)"/><path class="cls-1" d="M74.10728,66.369c.01864-.7418.05552-1.48021.10206-2.21666-.42469.0531-.84939.10641-1.27546.15544-.04005.67451-.07279,1.35046-.08991,2.02932A57.74249,57.74249,0,0,0,81.3018,98.03836a53.90537,53.90537,0,0,1-5.779-17.46974A57.22415,57.22415,0,0,1,74.10728,66.369Z" transform="translate(-19.1793 -9.65369)"/><path class="cls-1" d="M68.62548,59.70676c.0058-.03746.00967-.07551.01547-.11294A62.70152,62.70152,0,0,1,73.112,41.27566a63.28561,63.28561,0,0,0-5.78537,18.55958C67.761,59.7936,68.196,59.75237,68.62548,59.70676Z" transform="translate(-19.1793 -9.65369)"/><path class="cls-1" d="M130.35236,131.70879A62.53115,62.53115,0,0,1,67.8921,69.24811c0-1.50448.06077-2.99471.16671-4.47261-.42442.033-.849.06609-1.27464.09516-.099,1.447-.15538,2.90563-.15538,4.37745a63.71815,63.71815,0,0,0,127.17133,5.81078,62.61788,62.61788,0,0,1-5.8181,18.264A62.55412,62.55412,0,0,1,130.35236,131.70879Z" transform="translate(-19.1793 -9.65369)"/></svg>