<svg id="Camada_1" data-name="Camada 1" xmlns="http://www.w3.org/2000/svg" viewBox="0 0 17.37625 9.8442"><defs><style>.cls-1{fill:#fff;}</style></defs><path class="cls-1" d="M35.66856,14.6179a3.60774,3.60774,0,0,0-1.20965-.565,2.0779,2.0779,0,0,0-2.05016.74673q-.02565.029-.05069.05846c-.27868.328-.6811.94205-.93311,1.28224-.14229.19209-.242.283-.3328.283q-.1018,0-.1018-.40765a6.93951,6.93951,0,0,1,.06787-.83935c.04519-.35145.094-.54594.147-.91385q.079-.55138.1922-1.04319a4.65409,4.65409,0,0,1,.22614-.75536q.0451-.14389-.20353-.19186a.559.559,0,0,0-.42968.07193.92158.92158,0,0,0-.23749.25181,1.63676,1.63676,0,0,0-.16961.34771,1.5434,1.5434,0,0,0-.70108-.29974,1.57443,1.57443,0,0,0-.74629.06,1.62344,1.62344,0,0,0-.85937.70742c-.04068.06633-.0775.13361-.11231.2014a4.199,4.199,0,0,1-.679.84175,4.56475,4.56475,0,0,1-.92723.67144,7.17849,7.17849,0,0,0-.441-.9472c-.0774-.13933-.15405-.27943-.21983-.42543-.02925-.06494-.09526-.24554-.12768-.33527a.08729.08729,0,0,1,.01747-.09734,5.30223,5.30223,0,0,0,.87723-.92072.75647.75647,0,0,0,.07785-.6676.80552.80552,0,0,0-1.13-.28848,1.184,1.184,0,0,0-.60321.99623,4.91376,4.91376,0,0,0,.03346.87474,12.52477,12.52477,0,0,1-5.863.25538,11.02723,11.02723,0,0,0,5.94.01056,6.17151,6.17151,0,0,0,.33058.88567q.22575.49179.40707,1.01919a2.11949,2.11949,0,0,0-.54274.32374,1.66679,1.66679,0,0,0-.40709.4916.91137.91137,0,0,0-.11306.50358.72861.72861,0,0,0,.50881.64749.83684.83684,0,0,0,.48621,0,1.19535,1.19535,0,0,0,.89339-.86331,2.23267,2.23267,0,0,0-.07922-1.34289,6.42847,6.42847,0,0,0,.96118-.68346,3.23531,3.23531,0,0,0,.39034-.41466,2.74184,2.74184,0,0,0-.074.35471,2.34135,2.34135,0,0,0,.09047,1.07913.94648.94648,0,0,0,.59936.64748.47527.47527,0,0,0,.48622-.06,1.87488,1.87488,0,0,0,.32788-.41963,9.63414,9.63414,0,0,0,.50889-.97122q.25964-.56319.53148-1.11508-.04566.35968-.07921.79134-.0339.43164-.03393.86331a6.31732,6.31732,0,0,0,.04527.79134,1.46166,1.46166,0,0,0,.15827.55155.3921.3921,0,0,0,.2488.21582.41253.41253,0,0,0,.27135-.04793,1.20011,1.20011,0,0,0,.27141-.20384,2.1964,2.1964,0,0,0,.22614-.25181q.11886-.149.23576-.30379a5.56373,5.56373,0,0,1,1.4844-1.5993,2.31386,2.31386,0,0,1,2.3498.28225,5.62324,5.62324,0,0,0,.95251.52114A7.09053,7.09053,0,0,0,35.66856,14.6179Zm-9.95123-2.75058c.128-.24141.48521-.41769.67-.1364.173.26335-.08849.63808-.2526.82959a4.80143,4.80143,0,0,1-.49586.498A2.1709,2.1709,0,0,1,25.71733,11.86732Zm.27525,5.10493a.50684.50684,0,0,1-.24874.31176.49154.49154,0,0,1-.38447.07193.538.538,0,0,1-.294-.19182.76446.76446,0,0,1-.147-.35973.68413.68413,0,0,1,.07921-.43165,1.42042,1.42042,0,0,1,.39576-.4676,2.00688,2.00688,0,0,1,.50881-.29977,2.97138,2.97138,0,0,1,.11314.43165,2.60113,2.60113,0,0,1,.0452.47962A1.50851,1.50851,0,0,1,25.99258,16.97225Zm4.43241-3.621-.59936,1.27095a11.458,11.458,0,0,1-.55409,1.05513.756.756,0,0,1-.32788.33577q-.14735.04828-.26006-.21583a2.33048,2.33048,0,0,1-.09048-.69545,3.74414,3.74414,0,0,1,.09048-.81534,4.32816,4.32816,0,0,1,.2374-.75539,1.57607,1.57607,0,0,1,.35054-.53957.75392.75392,0,0,1,.63323-.20384,1.6882,1.6882,0,0,1,.6333.27581A2.23679,2.23679,0,0,1,30.425,13.35121Z" transform="translate(-19.1793 -9.65369)"/><path class="cls-1" d="M23.61821,13.58391a4.54188,4.54188,0,0,1,4.48213-3.82938c.039,0,.0781.00049.11717.00147a4.54594,4.54594,0,0,1,4.42514,4.65352l-.00091.02256q.05069-.04248.10251-.0816a4.64181,4.64181,0,0,0-9.23084-.75022C23.54864,13.59505,23.58342,13.58948,23.61821,13.58391Z" transform="translate(-19.1793 -9.65369)"/><path class="cls-1" d="M32.55082,15.21208a4.5466,4.5466,0,0,1-1.73993,2.72466,4.3316,4.3316,0,0,1-1.27454.7724,4.655,4.655,0,0,0,3.14311-3.64028Q32.61385,15.1389,32.55082,15.21208Z" transform="translate(-19.1793 -9.65369)"/><path class="cls-1" d="M23.56406,14.18113c.00149-.05922.00444-.11816.00815-.17695-.0339.00424-.0678.00849-.10182.01241-.00319.05384-.00581.1078-.00717.162a4.60945,4.60945,0,0,0,.67516,2.53064,4.30326,4.30326,0,0,1-.46132-1.39457A4.56831,4.56831,0,0,1,23.56406,14.18113Z" transform="translate(-19.1793 -9.65369)"/><path class="cls-1" d="M23.12647,13.6493l.00123-.009a5.0054,5.0054,0,0,1,.35692-1.46229,5.05158,5.05158,0,0,0-.46183,1.48157C23.05746,13.65623,23.09218,13.65294,23.12647,13.6493Z" transform="translate(-19.1793 -9.65369)"/><path class="cls-1" d="M28.054,19.397a4.9917,4.9917,0,0,1-4.986-4.98608c0-.1201.00485-.23906.01331-.357-.03388.00264-.06777.00528-.10175.0076-.00791.11551-.0124.23195-.0124.34944a5.08646,5.08646,0,0,0,10.15176.46386,4.99845,4.99845,0,0,1-.46444,1.458A4.99354,4.99354,0,0,1,28.054,19.397Z" transform="translate(-19.1793 -9.65369)"/></svg>