<svg id="Camada_1" data-name="Camada 1" xmlns="http://www.w3.org/2000/svg" viewBox="0 0 753.739 358"><defs><linearGradient id="Gradiente_sem_nome_141" x1="203.151" y1="381.648" x2="261.232" y2="348.115" gradientUnits="userSpaceOnUse"><stop offset="0" stop-color="#2a1a0e"/><stop offset=".117" stop-color="#2f1e11"/><stop offset=".255" stop-color="#3d281b"/><stop offset=".404" stop-color="#55392b"/><stop offset=".56" stop-color="#765141"/><stop offset=".722" stop-color="#a1705e"/><stop offset=".887" stop-color="#d49580"/><stop offset="1" stop-color="#fcb29b"/></linearGradient><linearGradient id="Gradiente_sem_nome_137" x1="260.178" y1="387.919" x2="322.154" y2="352.137" gradientUnits="userSpaceOnUse"><stop offset="0" stop-color="#fcb29b"/><stop offset=".009" stop-color="#f7af98"/><stop offset=".104" stop-color="#c88c78"/><stop offset=".204" stop-color="#9d6d5b"/><stop offset=".309" stop-color="#7a5443"/><stop offset=".419" stop-color="#5d3f30"/><stop offset=".535" stop-color="#462e21"/><stop offset=".661" stop-color="#362316"/><stop offset=".804" stop-color="#2d1c10"/><stop offset="1" stop-color="#2a1a0e"/></linearGradient><linearGradient id="Gradiente_sem_nome_114" x1="628.273" y1="393.764" x2="671.977" y2="350.06" gradientUnits="userSpaceOnUse"><stop offset=".615" stop-color="#332115"/><stop offset=".668" stop-color="#483023"/><stop offset=".778" stop-color="#7f5847"/><stop offset=".934" stop-color="#d59681"/><stop offset="1" stop-color="#fcb29b"/></linearGradient><linearGradient id="Gradiente_sem_nome_131" x1="684.817" y1="390.842" x2="736.393" y2="361.064" gradientUnits="userSpaceOnUse"><stop offset="0" stop-color="#fcb29b"/><stop offset=".047" stop-color="#f5ad96"/><stop offset=".115" stop-color="#e29f8a"/><stop offset=".196" stop-color="#c38975"/><stop offset=".286" stop-color="#976958"/><stop offset=".383" stop-color="#604233"/><stop offset=".433" stop-color="#412b1e"/><stop offset="1" stop-color="#2a1a0e"/></linearGradient><linearGradient id="Gradiente_sem_nome_144" x1="529.624" y1="293.362" x2="423.011" y2="108.703" gradientUnits="userSpaceOnUse"><stop offset="0" stop-color="#332115"/><stop offset=".063" stop-color="#382518"/><stop offset=".139" stop-color="#472f22"/><stop offset=".221" stop-color="#5f4132"/><stop offset=".308" stop-color="#815949"/><stop offset=".398" stop-color="#ac7866"/><stop offset=".49" stop-color="#e09e89"/><stop offset=".534" stop-color="#fcb29b"/><stop offset=".61" stop-color="#df9d88"/><stop offset=".776" stop-color="#956756"/><stop offset=".995" stop-color="#2a1a0e"/></linearGradient><linearGradient id="Gradiente_sem_nome_152" x1="374.674" y1="169.504" x2="384.363" y2="169.504" gradientUnits="userSpaceOnUse"><stop offset=".164" stop-color="#181818"/><stop offset="1" stop-color="#1f1f1f"/></linearGradient><linearGradient id="Gradiente_sem_nome_148" x1="373.505" y1="250.429" x2="586.495" y2="250.429" gradientUnits="userSpaceOnUse"><stop offset=".036" stop-color="#181818"/><stop offset=".292" stop-color="#75574d"/><stop offset=".659" stop-color="#ffb49d"/><stop offset=".67" stop-color="#f5ad96"/><stop offset=".689" stop-color="#d99983"/><stop offset=".714" stop-color="#ac7965"/><stop offset=".74" stop-color="#775341"/><stop offset=".778" stop-color="#604538"/><stop offset=".833" stop-color="#43352d"/><stop offset=".889" stop-color="#2f2925"/><stop offset=".945" stop-color="#232121"/><stop offset="1" stop-color="#1f1f1f"/></linearGradient><style>.cls-8{letter-spacing:.03em}.cls-9{letter-spacing:.04002em}.cls-13{fill:#c68b76}</style></defs><path d="M103.411 396.176a29.25 29.25 0 01-.28-5.062 25.229 25.229 0 011.406-7.967h.843a22.55 22.55 0 00-.094 2.062 13.566 13.566 0 003.468 9.514 11.846 11.846 0 009.186 3.796 13.605 13.605 0 009.701-3.561 11.755 11.755 0 003.797-8.952 11.378 11.378 0 00-3.656-8.765l-17.997-16.684a14.895 14.895 0 01-5.06-11.342 16.029 16.029 0 014.452-11.39q4.45-4.731 12.044-4.733a40.013 40.013 0 018.061.938h3.656v11.529h-.844a8.815 8.815 0 00-3.046-7.03 11.568 11.568 0 00-7.827-2.625 10.972 10.972 0 00-8.014 3.187 10.73 10.73 0 00-3.233 7.968 10.863 10.863 0 003.748 8.248l18.466 17.06q4.686 4.312 4.687 11.81a16.777 16.777 0 01-4.78 12.327q-4.781 4.828-12.748 4.827a33.379 33.379 0 01-8.765-1.265 15.324 15.324 0 01-7.171-3.89zM172.399 346.497v47.616a4.765 4.765 0 002.813 4.312 5.623 5.623 0 002.718.656h1.03v.938h-19.308v-.938h1.124a5.407 5.407 0 003.843-1.499 5.07 5.07 0 001.688-3.562v-47.523H149.34a4.376 4.376 0 00-3.422 1.405 4.874 4.874 0 00-1.266 3.374v1.5h-1.03v-10.591a20.922 20.922 0 005.296 1.124q3.42.376 5.109.376h30.557q6.749 0 10.498-1.5v10.591h-1.03v-1.5a4.774 4.774 0 00-1.313-3.374 4.414 4.414 0 00-3.374-1.405z" transform="translate(-103.13 -101)"/><path d="M258.728 344.715h-1.405a4.328 4.328 0 00-3.843 1.969 4.074 4.074 0 00-.656 1.968v31.59q0 9.748-6.233 15.418-6.235 5.673-17.107 5.67-10.875 0-17.154-5.623-6.28-5.624-6.28-15.372v-31.589a3.694 3.694 0 00-1.313-2.86 4.619 4.619 0 00-3.187-1.171h-1.405v-.937h17.81v.937h-1.407a4.615 4.615 0 00-3.187 1.172 3.69 3.69 0 00-1.312 2.859v30.464q0 9.093 4.64 14.34 4.639 5.252 13.123 5.25 8.483 0 13.591-4.967 5.107-4.969 5.11-13.592v-31.495a4.013 4.013 0 00-1.36-2.905 4.555 4.555 0 00-3.141-1.126h-1.405v-.937h16.121z" transform="translate(-103.13 -101)" fill="url(#Gradiente_sem_nome_141)"/><path d="M328.56 371.898q0 13.03-8.107 20.576-8.11 7.546-21.981 7.545h-31.308v-.938h1.22a5.09 5.09 0 003.749-1.499 5.23 5.23 0 001.593-3.562v-44.243a5.014 5.014 0 00-1.64-3.656 5.436 5.436 0 00-3.796-1.406h-1.126v-.937h31.308a35.546 35.546 0 0115.982 3.374 24.102 24.102 0 0110.45 9.749 29.626 29.626 0 013.656 14.997zM279.82 346.59v50.617h18.653q10.778 0 17.06-6.796 6.28-6.796 6.28-18.513 0-11.715-6.28-18.512-6.281-6.796-17.06-6.796z" transform="translate(-103.13 -101)" fill="url(#Gradiente_sem_nome_137)"/><path d="M338.309 399.081a6.844 6.844 0 004.405-1.499 4.449 4.449 0 001.875-3.562v-44.243a4.452 4.452 0 00-1.875-3.562 6.992 6.992 0 00-4.499-1.5h-1.219v-.937h21.184v.937h-1.218a6.935 6.935 0 00-4.358 1.406 4.817 4.817 0 00-2.016 3.468v44.524a4.601 4.601 0 001.969 3.515 6.98 6.98 0 004.405 1.453h1.218l.095.938h-21.279v-.938zM382.365 346.169a35.932 35.932 0 0131.775 0 28.967 28.967 0 0111.482 10.45 29.495 29.495 0 010 30.558 28.952 28.952 0 01-11.482 10.451 32.095 32.095 0 01-14.81 3.703 38.422 38.422 0 01-13.404-2.156 30.877 30.877 0 01-10.077-6 27.682 27.682 0 01-6.748-9.373 31.436 31.436 0 01-2.484-12.981 26.162 26.162 0 014.264-14.202 28.946 28.946 0 0111.484-10.45zm-1.735 44.898a24.507 24.507 0 0035.197 0q7.122-7.452 7.124-19.17 0-11.714-7.124-19.167a24.504 24.504 0 00-35.197 0q-7.078 7.452-7.078 19.168 0 11.719 7.078 19.17zM532.362 399.081h.75v.938h-21.09v-.938h.843a3.507 3.507 0 002.952-1.266 3.965 3.965 0 00.985-2.389 7.11 7.11 0 00-.375-2.25l-5.999-15.935H485.12l-6.28 16.03a6.933 6.933 0 00-.375 2.201 3.922 3.922 0 00.985 2.343 3.506 3.506 0 002.952 1.266h.844v.938h-18.841v-.938h.844a8.194 8.194 0 004.592-1.499 10.757 10.757 0 003.656-4.406l21.185-50.429q3.467-7.592 3.467-9.655h.844l25.121 60.084a10.124 10.124 0 003.563 4.406 8.325 8.325 0 004.686 1.5zm-46.117-24.652h23.058l-11.248-30.088z" transform="translate(-103.13 -101)"/><path d="M612.223 399.081h1.407v.938h-19.498v-.844h1.407a3.413 3.413 0 002.484-1.078 2.959 2.959 0 00.89-2.577L594.04 356.9l-17.716 34.87a40.323 40.323 0 00-3.281 9.56h-.937l-22.59-43.587-4.219 37.776a2.953 2.953 0 00.892 2.53 3.438 3.438 0 002.577 1.125h1.312v.844h-17.341v-.938h1.406a6.244 6.244 0 005.25-2.436 5.717 5.717 0 001.125-2.907l7.31-51.273h.938l24.746 47.618 23.902-47.618h.844l7.593 51.461a5.752 5.752 0 002.156 3.75 6.6 6.6 0 004.217 1.405z" transform="translate(-103.13 -101)"/><path d="M634.251 346.169a35.932 35.932 0 0131.776 0 28.967 28.967 0 0111.482 10.45 29.495 29.495 0 010 30.558 28.952 28.952 0 01-11.482 10.451 32.095 32.095 0 01-14.81 3.703 38.422 38.422 0 01-13.404-2.156 30.877 30.877 0 01-10.077-6 27.682 27.682 0 01-6.748-9.373 31.436 31.436 0 01-2.484-12.981 26.162 26.162 0 014.264-14.202 28.946 28.946 0 0111.483-10.45zm-1.734 44.898a24.507 24.507 0 0035.197 0q7.122-7.452 7.124-19.17 0-11.714-7.124-19.167a24.504 24.504 0 00-35.197 0q-7.078 7.452-7.078 19.168 0 11.719 7.078 19.17z" transform="translate(-103.13 -101)" fill="url(#Gradiente_sem_nome_114)"/><path d="M707.645 346.684h-4.968v47.336a5.02 5.02 0 002.624 4.405 5.627 5.627 0 002.718.656h1.22l.093.938h-19.217v-.938h1.313a5.216 5.216 0 003.703-1.453 4.646 4.646 0 001.547-3.515V349.59a4.504 4.504 0 00-1.547-3.468 5.313 5.313 0 00-3.703-1.406h-1.313v-.937h23.529q8.809 0 13.92 4.03a12.848 12.848 0 015.108 10.593 15.434 15.434 0 01-4.125 10.967 16.127 16.127 0 01-10.498 5.061q3 1.314 7.218 7.311-.095 0 3.233 4.125 3.327 4.127 5.343 6.42 2.015 2.3 3.328 3.515a11.252 11.252 0 007.968 3.281v.938h-2.907q-7.406 0-11.622-2.906a27.437 27.437 0 01-5.812-5.343q-.563-.748-4.734-6.608-4.172-5.856-4.452-6.234-5.062-6.278-9.467-6.28v-.937q10.966 0 13.216-1.125a10.582 10.582 0 004.218-3.374 15.268 15.268 0 002.343-8.249q0-5.717-3.374-8.812a14.016 14.016 0 00-9.092-3.374q-2.531-.091-5.811-.093z" transform="translate(-103.13 -101)" fill="url(#Gradiente_sem_nome_131)"/><path d="M750.2 399.081a6.844 6.844 0 004.406-1.499 4.449 4.449 0 001.874-3.562v-44.243a4.452 4.452 0 00-1.874-3.562 6.992 6.992 0 00-4.5-1.5h-1.219v-.937h21.184v.937h-1.218a6.935 6.935 0 00-4.358 1.406 4.817 4.817 0 00-2.016 3.468v44.524a4.601 4.601 0 001.969 3.515 6.98 6.98 0 004.405 1.453h1.219l.094.938h-21.279v-.938zM855.463 399.081h1.407v.938h-19.498v-.844h1.407a3.413 3.413 0 002.484-1.078 2.959 2.959 0 00.89-2.577L837.28 356.9l-17.716 34.87a40.322 40.322 0 00-3.281 9.56h-.937l-22.59-43.587-4.219 37.776a2.953 2.953 0 00.892 2.53 3.438 3.438 0 002.577 1.125h1.312v.844h-17.341v-.938h1.406a6.244 6.244 0 005.25-2.436 5.717 5.717 0 001.125-2.907l7.31-51.273h.938l24.746 47.618 23.902-47.618h.844l7.593 51.461a5.752 5.752 0 002.156 3.75 6.6 6.6 0 004.217 1.405z" transform="translate(-103.13 -101)"/><text transform="translate(172.128 349.024)" font-size="31.603" fill="#5b1d14" font-family="CinzelDecorative-Regular,Cinzel Decorative" letter-spacing=".05em">Cí<tspan x="39.788" y="0" letter-spacing=".035em">l</tspan><tspan x="58.655" y="0" letter-spacing=".03em">i</tspan><tspan x="70.286" y="0">os e S</tspan><tspan class="cls-8" x="172.996" y="0">o</tspan><tspan class="cls-9" x="200.744" y="0">b</tspan><tspan x="220.528" y="0" letter-spacing=".02em">r</tspan><tspan x="242.556" y="0">a</tspan><tspan class="cls-8" x="266.637" y="0">n</tspan><tspan x="294.163" y="0">c</tspan><tspan class="cls-9" x="319.762" y="0">e</tspan><tspan x="339.262" y="0" letter-spacing=".035em">l</tspan><tspan x="358.128" y="0">ha</tspan></text><path d="M639.99 205.152c-7.804-5.14-16.14-9.89-25.38-11.854-16.905-3.7-31.813 3.021-43.013 15.667q-.538.607-1.063 1.226c-5.847 6.883-14.29 19.765-19.578 26.903-2.985 4.03-5.078 5.937-6.982 5.937q-2.136 0-2.136-8.552a145.624 145.624 0 011.424-17.61c.948-7.374 1.972-11.455 3.084-19.174q1.657-11.568 4.033-21.886a97.622 97.622 0 014.744-15.848q.946-3.02-4.27-4.026a11.727 11.727 0 00-9.015 1.51 19.337 19.337 0 00-4.982 5.283 34.34 34.34 0 00-3.559 7.295 32.383 32.383 0 00-14.71-6.289 33.034 33.034 0 00-15.657 1.258 34.06 34.06 0 00-18.03 14.842 63.676 63.676 0 00-2.356 4.225 88.094 88.094 0 01-14.245 17.661 95.782 95.782 0 01-19.454 14.087 150.627 150.627 0 00-9.253-19.873c-1.624-2.923-3.232-5.862-4.612-8.926-.614-1.362-1.999-5.151-2.679-7.034a1.831 1.831 0 01.367-2.042c6.013-4.899 15.18-14.25 18.405-19.317 2.488-3.91 3.5-9.409 1.633-14.007-3.895-9.596-15.921-9.885-23.709-6.052-7.589 3.734-12.1 12.249-12.655 20.901a103.078 103.078 0 00.702 18.353c-50.962 19.822-123.01 5.358-123.01 5.358 8.625 2.595 64.124 18.15 124.625.221a129.505 129.505 0 006.936 18.582q4.736 10.318 8.54 21.383a44.471 44.471 0 00-11.387 6.793 34.97 34.97 0 00-8.54 10.314 19.122 19.122 0 00-2.373 10.565 15.286 15.286 0 0010.676 13.585 17.556 17.556 0 0010.2 0q15.183-4.529 18.744-18.113 3.558-13.584-1.662-28.175a134.881 134.881 0 0020.166-14.339 67.865 67.865 0 008.19-8.7 57.572 57.572 0 00-1.554 7.442 49.127 49.127 0 001.899 22.641q3.558 10.566 12.575 13.585 6.638 2.016 10.2-1.259a39.34 39.34 0 006.88-8.804 202.086 202.086 0 0010.677-20.377q5.447-11.816 11.15-23.395-.957 7.547-1.661 16.603-.711 9.056-.712 18.113a132.515 132.515 0 00.95 16.602q.945 7.548 3.32 11.572 2.37 4.034 5.22 4.528a8.655 8.655 0 005.693-1.005 25.185 25.185 0 005.695-4.277 46.095 46.095 0 004.744-5.283q2.494-3.126 4.947-6.374c9.083-12 17.792-25.84 31.143-33.554 16.223-9.374 34.313-2.894 49.3 5.922 8.845 5.202 10.438 7.022 19.985 10.934-4.11-4.474-18.61-13.746-18.61-13.746zm-208.783-57.709c2.685-5.065 10.18-8.763 14.056-2.861 3.63 5.525-1.856 13.387-5.3 17.405-1.445 1.687-9.513 10.333-10.403 10.448-.471-1.924-2.81-16.584 1.647-24.992zm5.775 107.105a10.634 10.634 0 01-5.219 6.541q-4.27 2.524-8.066 1.51a11.286 11.286 0 01-6.17-4.025 16.037 16.037 0 01-3.083-7.548 14.353 14.353 0 011.661-9.056 29.801 29.801 0 018.304-9.81 42.106 42.106 0 0110.675-6.29 62.33 62.33 0 012.374 9.056 54.566 54.566 0 01.948 10.063 31.649 31.649 0 01-1.424 9.56zm92.995-75.972l-12.575 26.666a240.38 240.38 0 01-11.626 22.137q-3.802 6.038-6.879 7.045-3.091 1.013-5.456-4.529a48.897 48.897 0 01-1.898-14.59 78.558 78.558 0 011.898-17.107 90.819 90.819 0 014.98-15.849 33.068 33.068 0 017.355-11.32q6.64-5.53 13.286-4.277a35.422 35.422 0 0113.287 5.787 46.933 46.933 0 01-2.373 6.037z" transform="translate(-103.13 -101)" fill="url(#Gradiente_sem_nome_144)"/><path class="cls-13" d="M387.166 183.458a95.292 95.292 0 0194.038-80.342c.817 0 1.639.01 2.458.03a95.376 95.376 0 0192.842 97.634c-.003.159-.014.316-.019.474q1.064-.892 2.151-1.712a97.388 97.388 0 00-193.669-15.74c.74-.11 1.47-.227 2.199-.344zM574.578 217.619a95.39 95.39 0 01-36.505 57.165 90.882 90.882 0 01-26.74 16.205 97.665 97.665 0 0065.944-76.375q-1.377 1.47-2.7 3.005zM386.03 195.989c.031-1.243.093-2.48.17-3.713-.71.089-1.422.178-2.135.26a99.764 99.764 0 00-.15 3.4 96.709 96.709 0 0014.165 53.093 90.282 90.282 0 01-9.68-29.258 95.841 95.841 0 01-2.37-23.782z" transform="translate(-103.13 -101)"/><path d="M376.849 184.83c.01-.062.016-.126.026-.189a105.015 105.015 0 017.488-30.68 105.993 105.993 0 00-9.69 31.085c.728-.07 1.456-.14 2.176-.216z" transform="translate(-103.13 -101)" fill="url(#Gradiente_sem_nome_152)"/><path d="M480.231 305.422a104.73 104.73 0 01-104.61-104.611c0-2.52.101-5.016.279-7.491-.711.055-1.422.11-2.135.16-.166 2.423-.26 4.866-.26 7.33a106.717 106.717 0 00212.99 9.733 104.875 104.875 0 01-9.744 30.589 104.768 104.768 0 01-96.52 64.29z" transform="translate(-103.13 -101)" fill="url(#Gradiente_sem_nome_148)"/></svg>