<svg id="Camada_1" data-name="Camada 1" xmlns="http://www.w3.org/2000/svg" xmlns:xlink="http://www.w3.org/1999/xlink" viewBox="0 0 753.73915 358"><defs><style>.cls-1{fill:url(#Gradiente_sem_nome_141);}.cls-2{fill:url(#Gradiente_sem_nome_137);}.cls-3{fill:url(#Gradiente_sem_nome_114);}.cls-4{fill:url(#Gradiente_sem_nome_131);}.cls-5{font-size:31.60339px;fill:#5b1d14;font-family:CinzelDecorative-Regular, Cinzel Decorative;letter-spacing:0.05em;}.cls-6{letter-spacing:0.03501em;}.cls-7{letter-spacing:0.03004em;}.cls-8{letter-spacing:0.03em;}.cls-9{letter-spacing:0.04002em;}.cls-10{letter-spacing:0.01999em;}.cls-11{letter-spacing:0.03498em;}.cls-12{fill:url(#Gradiente_sem_nome_144);}.cls-13{fill:#c68b76;}.cls-14{fill:url(#Gradiente_sem_nome_152);}.cls-15{fill:url(#Gradiente_sem_nome_148);}</style><linearGradient id="Gradiente_sem_nome_141" x1="203.1509" y1="381.64832" x2="261.23213" y2="348.1151" gradientUnits="userSpaceOnUse"><stop offset="0" stop-color="#2a1a0e"/><stop offset="0.11719" stop-color="#2f1e11"/><stop offset="0.25531" stop-color="#3d281b"/><stop offset="0.40405" stop-color="#55392b"/><stop offset="0.56025" stop-color="#765141"/><stop offset="0.72235" stop-color="#a1705e"/><stop offset="0.88681" stop-color="#d49580"/><stop offset="1" stop-color="#fcb29b"/></linearGradient><linearGradient id="Gradiente_sem_nome_137" x1="260.1782" y1="387.91944" x2="322.15435" y2="352.13749" gradientUnits="userSpaceOnUse"><stop offset="0" stop-color="#fcb29b"/><stop offset="0.00857" stop-color="#f7af98"/><stop offset="0.10375" stop-color="#c88c78"/><stop offset="0.20445" stop-color="#9d6d5b"/><stop offset="0.30904" stop-color="#7a5443"/><stop offset="0.41867" stop-color="#5d3f30"/><stop offset="0.535" stop-color="#462e21"/><stop offset="0.66102" stop-color="#362316"/><stop offset="0.80389" stop-color="#2d1c10"/><stop offset="1" stop-color="#2a1a0e"/></linearGradient><linearGradient id="Gradiente_sem_nome_114" x1="628.27274" y1="393.7641" x2="671.97718" y2="350.05966" gradientUnits="userSpaceOnUse"><stop offset="0.61453" stop-color="#332115"/><stop offset="0.66777" stop-color="#483023"/><stop offset="0.77796" stop-color="#7f5847"/><stop offset="0.93428" stop-color="#d59681"/><stop offset="1" stop-color="#fcb29b"/></linearGradient><linearGradient id="Gradiente_sem_nome_131" x1="684.81697" y1="390.84155" x2="736.39332" y2="361.06392" gradientUnits="userSpaceOnUse"><stop offset="0" stop-color="#fcb29b"/><stop offset="0.04726" stop-color="#f5ad96"/><stop offset="0.11524" stop-color="#e29f8a"/><stop offset="0.19577" stop-color="#c38975"/><stop offset="0.2859" stop-color="#976958"/><stop offset="0.38283" stop-color="#604233"/><stop offset="0.43296" stop-color="#412b1e"/><stop offset="1" stop-color="#2a1a0e"/></linearGradient><linearGradient id="Gradiente_sem_nome_144" x1="529.62362" y1="293.36202" x2="423.01094" y2="108.70344" gradientUnits="userSpaceOnUse"><stop offset="0" stop-color="#332115"/><stop offset="0.06321" stop-color="#382518"/><stop offset="0.13891" stop-color="#472f22"/><stop offset="0.22097" stop-color="#5f4132"/><stop offset="0.3076" stop-color="#815949"/><stop offset="0.39779" stop-color="#ac7866"/><stop offset="0.48963" stop-color="#e09e89"/><stop offset="0.53352" stop-color="#fcb29b"/><stop offset="0.6098" stop-color="#df9d88"/><stop offset="0.7757" stop-color="#956756"/><stop offset="0.99549" stop-color="#2a1a0e"/></linearGradient><linearGradient id="Gradiente_sem_nome_152" x1="374.6736" y1="169.50356" x2="384.36311" y2="169.50356" gradientUnits="userSpaceOnUse"><stop offset="0.16402" stop-color="#181818"/><stop offset="1" stop-color="#1f1f1f"/></linearGradient><linearGradient id="Gradiente_sem_nome_148" x1="373.50477" y1="250.42865" x2="586.49531" y2="250.42865" gradientUnits="userSpaceOnUse"><stop offset="0.03553" stop-color="#181818"/><stop offset="0.29223" stop-color="#75574d"/><stop offset="0.65873" stop-color="#ffb49d"/><stop offset="0.66999" stop-color="#f5ad96"/><stop offset="0.68936" stop-color="#d99983"/><stop offset="0.71448" stop-color="#ac7965"/><stop offset="0.74022" stop-color="#775341"/><stop offset="0.77772" stop-color="#604538"/><stop offset="0.83348" stop-color="#43352d"/><stop offset="0.88935" stop-color="#2f2925"/><stop offset="0.94496" stop-color="#232121"/><stop offset="1" stop-color="#1f1f1f"/></linearGradient></defs><path d="M103.411,396.17576a29.24958,29.24958,0,0,1-.28058-5.06132,25.229,25.229,0,0,1,1.40654-7.96792h.84294c-.06316.68869-.09352,1.375-.09352,2.06243a13.56647,13.56647,0,0,0,3.46774,9.51413,11.8458,11.8458,0,0,0,9.18618,3.79569,13.6049,13.6049,0,0,0,9.70118-3.56127,11.75507,11.75507,0,0,0,3.7969-8.95176,11.37761,11.37761,0,0,0-3.656-8.7647l-17.997-16.684a14.89527,14.89527,0,0,1-5.06132-11.34213,16.02888,16.02888,0,0,1,4.4528-11.3895q4.451-4.73156,12.04418-4.73338a40.01332,40.01332,0,0,1,8.06144.93769h3.656v11.52918h-.84416a8.81532,8.81532,0,0,0-3.04627-7.03023,11.56783,11.56783,0,0,0-7.827-2.62479,10.97232,10.97232,0,0,0-8.01407,3.18716,10.73028,10.73028,0,0,0-3.23332,7.96792,10.86329,10.86329,0,0,0,3.74832,8.24849l18.46588,17.05935q4.686,4.31251,4.68723,11.811a16.77671,16.77671,0,0,1-4.78075,12.326q-4.78076,4.82813-12.74745,4.82691a33.379,33.379,0,0,1-8.76471-1.26443A15.32362,15.32362,0,0,1,103.411,396.17576Z" transform="translate(-103.13042 -101)"/><path d="M172.39905,346.49655v47.61679a4.76519,4.76519,0,0,0,2.81306,4.3119,5.62328,5.62328,0,0,0,2.71832.6559h1.03v.93768H159.6516v-.93768h1.12474a5.40673,5.40673,0,0,0,3.84306-1.49885,5.07036,5.07036,0,0,0,1.68711-3.56248V346.49655H149.34068a4.37573,4.37573,0,0,0-3.42159,1.40532,4.87431,4.87431,0,0,0-1.26563,3.37421v1.50006h-1.03v-10.5915a20.92231,20.92231,0,0,0,5.29575,1.12474q3.41976.37533,5.10869.37532h30.55744q6.74844,0,10.498-1.50006v10.5915H194.0521v-1.50006a4.77352,4.77352,0,0,0-1.3118-3.37421,4.41378,4.41378,0,0,0-3.37421-1.40532Z" transform="translate(-103.13042 -101)"/><path class="cls-1" d="M258.72824,344.7147h-1.40532a4.32783,4.32783,0,0,0-3.84306,1.9689,4.07437,4.07437,0,0,0-.6559,1.9689v31.58865q0,9.74916-6.23343,15.4184-6.23464,5.6735-17.10672,5.67107-10.87512,0-17.1541-5.6237-6.2802-5.62431-6.27959-15.37224V348.746a3.69433,3.69433,0,0,0-1.313-2.85922A4.619,4.619,0,0,0,201.55,344.7147h-1.40532v-.93647h17.81v.93647h-1.40653a4.61471,4.61471,0,0,0-3.18716,1.17211,3.68915,3.68915,0,0,0-1.31179,2.85922v30.46391q0,9.09325,4.63985,14.341,4.63863,5.25081,13.12276,5.24959,8.48292,0,13.59161-4.9678,5.10689-4.96841,5.1087-13.59161V348.746a4.01282,4.01282,0,0,0-1.35916-2.90538,4.55456,4.55456,0,0,0-3.141-1.12595h-1.40532v-.93647h16.12167Z" transform="translate(-103.13042 -101)"/><path class="cls-2" d="M328.56044,371.89792q0,13.03045-8.10759,20.57568-8.10942,7.54644-21.981,7.54522H267.16378v-.93768h1.21948a5.09044,5.09044,0,0,0,3.74953-1.49885,5.23023,5.23023,0,0,0,1.59359-3.56248V349.77724a5.01426,5.01426,0,0,0-1.641-3.656,5.43615,5.43615,0,0,0-3.79569-1.40653h-1.126v-.93647h31.30807a35.54594,35.54594,0,0,1,15.982,3.37421,24.10246,24.10246,0,0,1,10.4506,9.74855A29.62643,29.62643,0,0,1,328.56044,371.89792Zm-48.74152-25.30785V397.207h18.65293q10.77855,0,17.05935-6.79581,6.2802-6.79579,6.28081-18.51325,0-11.715-6.28081-18.512-6.2802-6.79581-17.05935-6.79581Z" transform="translate(-103.13042 -101)"/><path d="M338.309,399.08114a6.844,6.844,0,0,0,4.40543-1.49885,4.44889,4.44889,0,0,0,1.87416-3.56248V349.77724a4.45224,4.45224,0,0,0-1.87416-3.56248,6.99207,6.99207,0,0,0-4.499-1.50006H336.996v-.93647h21.1842v.93647h-1.21826a6.93507,6.93507,0,0,0-4.35806,1.40653,4.817,4.817,0,0,0-2.01627,3.46774v44.52437a4.60147,4.60147,0,0,0,1.9689,3.51511,6.97919,6.97919,0,0,0,4.40543,1.45269h1.21826l.09474.93768H336.996v-.93768Z" transform="translate(-103.13042 -101)"/><path d="M382.36451,346.1686a35.93188,35.93188,0,0,1,31.7757,0A28.9666,28.9666,0,0,1,425.622,356.6192a29.49492,29.49492,0,0,1,0,30.55744,28.95181,28.95181,0,0,1-11.48181,10.45181,32.09454,32.09454,0,0,1-14.80987,3.70217,38.42182,38.42182,0,0,1-13.40456-2.156,30.87673,30.87673,0,0,1-10.0765-5.999,27.6817,27.6817,0,0,1-6.74843-9.37323,31.43554,31.43554,0,0,1-2.4839-12.98187,26.16213,26.16213,0,0,1,4.26453-14.20135A28.94587,28.94587,0,0,1,382.36451,346.1686ZM380.63,391.06707a24.50714,24.50714,0,0,0,35.19729,0q7.12193-7.4517,7.12375-19.16915,0-11.715-7.12375-19.16794a24.50437,24.50437,0,0,0-35.19729,0q-7.0782,7.4517-7.07759,19.16794Q373.55244,383.61658,380.63,391.06707Z" transform="translate(-103.13042 -101)"/><path d="M532.36171,399.08114h.75063v.93768H512.02166v-.93768h.84295a3.50673,3.50673,0,0,0,2.95274-1.26564,3.9649,3.9649,0,0,0,.98506-2.38916,7.11092,7.11092,0,0,0-.37532-2.25069l-5.999-15.93461H485.119l-6.27959,16.02935a6.93323,6.93323,0,0,0-.37532,2.20211,3.92214,3.92214,0,0,0,.98506,2.343,3.50586,3.50586,0,0,0,2.95153,1.26564h.84416v.93768h-18.8412v-.93768h.84416a8.19375,8.19375,0,0,0,4.59248-1.49885,10.75671,10.75671,0,0,0,3.656-4.40664L494.68052,342.747q3.46713-7.592,3.46774-9.655h.84416l25.12079,60.08366a10.12351,10.12351,0,0,0,3.56249,4.40664A8.32452,8.32452,0,0,0,532.36171,399.08114ZM486.245,374.42919h23.05837L498.05473,344.3406Z" transform="translate(-103.13042 -101)"/><path d="M612.223,399.08114h1.40653v.93768h-19.4971v-.84416H595.539a3.41277,3.41277,0,0,0,2.4839-1.07737,2.95886,2.95886,0,0,0,.89032-2.57742L594.039,356.901l-17.71647,34.86934a40.32264,40.32264,0,0,0-3.28069,9.56029h-.93647l-22.59074-43.58668-4.21838,37.77593a2.95337,2.95337,0,0,0,.89154,2.53,3.43818,3.43818,0,0,0,2.57742,1.12474H550.077v.84416H532.73581v-.93768h1.40653a6.24441,6.24441,0,0,0,5.24959-2.43653,5.71713,5.71713,0,0,0,1.12474-2.90659l7.3108-51.2728h.93769l24.74548,47.618,23.90252-47.618h.84417l7.59259,51.46107a5.7523,5.7523,0,0,0,2.15595,3.74953A6.60065,6.60065,0,0,0,612.223,399.08114Z" transform="translate(-103.13042 -101)"/><path class="cls-3" d="M634.2514,346.1686a35.9319,35.9319,0,0,1,31.77571,0,28.96673,28.96673,0,0,1,11.48181,10.4506,29.49492,29.49492,0,0,1,0,30.55744,28.95194,28.95194,0,0,1-11.48181,10.45181,32.09455,32.09455,0,0,1-14.80988,3.70217,38.42182,38.42182,0,0,1-13.40456-2.156,30.87678,30.87678,0,0,1-10.07649-5.999,27.68186,27.68186,0,0,1-6.74844-9.37323,31.43554,31.43554,0,0,1-2.4839-12.98187,26.16214,26.16214,0,0,1,4.26454-14.20135A28.94577,28.94577,0,0,1,634.2514,346.1686Zm-1.73447,44.89847a24.50713,24.50713,0,0,0,35.19728,0q7.12194-7.4517,7.12376-19.16915,0-11.715-7.12376-19.16794a24.50436,24.50436,0,0,0-35.19728,0q-7.07821,7.4517-7.0776,19.16794Q625.43933,383.61658,632.51693,391.06707Z" transform="translate(-103.13042 -101)"/><path class="cls-4" d="M707.64488,346.6836h-4.9678v47.33621a5.0191,5.0191,0,0,0,2.62358,4.40543,5.62667,5.62667,0,0,0,2.71832.6559h1.21948l.09353.93768H690.11547v-.93768h1.313a5.21564,5.21564,0,0,0,3.70216-1.45269,4.646,4.646,0,0,0,1.54743-3.51511V349.589a4.50374,4.50374,0,0,0-1.54743-3.46774,5.31339,5.31339,0,0,0-3.70216-1.40653h-1.313v-.93647h23.52842q8.809,0,13.91956,4.03011a12.84762,12.84762,0,0,1,5.1087,10.59271,15.43379,15.43379,0,0,1-4.12486,10.96681,16.1268,16.1268,0,0,1-10.498,5.06133q2.99891,1.31361,7.21728,7.3108-.09474,0,3.23332,4.12486,3.32685,4.12666,5.34312,6.42048,2.01506,2.29928,3.32806,3.51512a11.2521,11.2521,0,0,0,7.96792,3.28069v.93768h-2.90659q-7.40616,0-11.62271-2.90537a27.43687,27.43687,0,0,1-5.812-5.34312q-.563-.74881-4.73338-6.60875-4.17222-5.85569-4.4528-6.23344-5.06133-6.27837-9.46676-6.27959v-.93768q10.96622,0,13.21629-1.12474a10.58169,10.58169,0,0,0,4.21838-3.37422,15.26844,15.26844,0,0,0,2.343-8.24849q0-5.71722-3.37422-8.81208a14.01638,14.01638,0,0,0-9.09265-3.37421Q710.925,346.686,707.64488,346.6836Z" transform="translate(-103.13042 -101)"/><path d="M750.20034,399.08114a6.844,6.844,0,0,0,4.40543-1.49885,4.44889,4.44889,0,0,0,1.87416-3.56248V349.77724a4.45224,4.45224,0,0,0-1.87416-3.56248,6.99207,6.99207,0,0,0-4.499-1.50006h-1.21948v-.93647h21.1842v.93647h-1.21826a6.93507,6.93507,0,0,0-4.35806,1.40653A4.817,4.817,0,0,0,762.479,349.589v44.52437a4.60147,4.60147,0,0,0,1.9689,3.51511,6.97919,6.97919,0,0,0,4.40543,1.45269h1.21826l.09474.93768H748.88734v-.93768Z" transform="translate(-103.13042 -101)"/><path d="M855.463,399.08114h1.40654v.93768h-19.4971v-.84416H838.779a3.4128,3.4128,0,0,0,2.4839-1.07737,2.95886,2.95886,0,0,0,.89032-2.57742L837.279,356.901l-17.71646,34.86934a40.32173,40.32173,0,0,0-3.28069,9.56029h-.93647l-22.59074-43.58668-4.21838,37.77593a2.95339,2.95339,0,0,0,.89153,2.53,3.43822,3.43822,0,0,0,2.57743,1.12474H793.317v.84416H775.97582v-.93768h1.40653a6.24442,6.24442,0,0,0,5.24959-2.43653,5.71713,5.71713,0,0,0,1.12474-2.90659l7.3108-51.2728h.93769l24.74547,47.618,23.90253-47.618h.84416l7.5926,51.46107a5.7523,5.7523,0,0,0,2.156,3.74953A6.60064,6.60064,0,0,0,855.463,399.08114Z" transform="translate(-103.13042 -101)"/><text class="cls-5" transform="translate(172.12804 349.02441)">Cí<tspan class="cls-6" x="39.78809" y="0">l</tspan><tspan class="cls-7" x="58.65527" y="0">i</tspan><tspan x="70.28613" y="0">os e S</tspan><tspan class="cls-8" x="172.99609" y="0">o</tspan><tspan class="cls-9" x="200.74414" y="0">b</tspan><tspan class="cls-10" x="220.52832" y="0">r</tspan><tspan x="242.55566" y="0">a</tspan><tspan class="cls-8" x="266.63672" y="0">n</tspan><tspan x="294.16309" y="0">c</tspan><tspan class="cls-9" x="319.76172" y="0">e</tspan><tspan class="cls-11" x="339.26172" y="0">l</tspan><tspan x="358.12793" y="0">ha</tspan></text><path class="cls-12" d="M639.98988,205.15231c-7.80394-5.14-16.14079-9.89126-25.3792-11.85447-16.9054-3.70072-31.81366,3.02129-43.01368,15.66694q-.53793.60762-1.0634,1.22647c-5.84688,6.88249-14.29,19.76469-19.57726,26.90226-2.98524,4.03019-5.07833,5.93782-6.98225,5.93782q-2.13621,0-2.13591-8.55275a145.62393,145.62393,0,0,1,1.42384-17.61c.94831-7.37374,1.97163-11.45418,3.08422-19.17325q1.657-11.56836,4.03255-21.88679a97.62207,97.62207,0,0,1,4.74461-15.84777q.946-3.019-4.2703-4.0254a11.7274,11.7274,0,0,0-9.01492,1.50909,19.33749,19.33749,0,0,0-4.98268,5.28315,34.33948,34.33948,0,0,0-3.55854,7.29509,32.38293,32.38293,0,0,0-14.70906-6.2887,33.034,33.034,0,0,0-15.65768,1.25774A34.05991,34.05991,0,0,0,484.90008,179.834c-.85357,1.39158-1.62607,2.8032-2.35636,4.22537A88.09363,88.09363,0,0,1,468.299,201.72a95.78159,95.78159,0,0,1-19.454,14.08725,150.62705,150.62705,0,0,0-9.25268-19.873c-1.62395-2.92314-3.23211-5.86259-4.61222-8.92587-.6138-1.36248-1.9986-5.15155-2.67878-7.03419a1.8312,1.8312,0,0,1,.36655-2.04222c6.01309-4.8986,15.17989-14.2495,18.40475-19.31714,2.48835-3.91027,3.49993-9.40864,1.63336-14.00682-3.895-9.596-15.92126-9.88481-23.70849-6.05246-7.589,3.73481-12.10006,12.24931-12.65575,20.90158a103.07787,103.07787,0,0,0,.70205,18.35255c-50.96214,19.82269-123.0089,5.35813-123.0089,5.35813,8.62406,2.59564,64.12336,18.14986,124.62405.22146a129.50543,129.50543,0,0,0,6.93578,18.582q4.73658,10.31793,8.54061,21.38317a44.47132,44.47132,0,0,0-11.38707,6.79224,34.97081,34.97081,0,0,0-8.54091,10.31411,19.12233,19.12233,0,0,0-2.37216,10.56553,15.28636,15.28636,0,0,0,10.67531,13.58455,17.55607,17.55607,0,0,0,10.201,0q15.18216-4.52864,18.74373-18.11273,3.55824-13.58455-1.6619-28.17466a134.881,134.881,0,0,0,20.166-14.33951,67.86532,67.86532,0,0,0,8.18958-8.69965,57.57187,57.57187,0,0,0-1.5535,7.44191,49.12685,49.12685,0,0,0,1.89815,22.64092q3.55867,10.56549,12.575,13.58455,6.63821,2.01608,10.2013-1.25858a39.34025,39.34025,0,0,0,6.879-8.80418,202.08593,202.08593,0,0,0,10.67682-20.37679q5.44758-11.816,11.15083-23.395-.95787,7.54644-1.6619,16.60281-.711,9.0559-.71177,18.11265a132.51494,132.51494,0,0,0,.94983,16.60281q.94559,7.5477,3.32047,11.57185,2.3708,4.03341,5.22014,4.52818a8.65537,8.65537,0,0,0,5.69293-1.00555,25.18534,25.18534,0,0,0,5.69445-4.27676,46.09549,46.09549,0,0,0,4.74461-5.28315q2.49376-3.12631,4.94624-6.37372c9.08324-11.99947,17.79268-25.84008,31.1438-33.55444,16.22278-9.37338,34.31243-2.89391,49.30025,5.92181,8.84487,5.20253,10.43724,7.02248,19.98416,10.934C654.48972,214.42435,639.98988,205.15231,639.98988,205.15231Zm-208.783-57.70892c2.685-5.06491,10.18-8.76341,14.0562-2.8618,3.629,5.52539-1.85655,13.3874-5.29969,17.40537-1.4457,1.68734-9.51371,10.33338-10.40342,10.44756C429.08905,170.51131,426.74993,155.85089,431.20685,147.44339Zm5.77492,107.10475a10.63375,10.63375,0,0,1-5.21862,6.54089q-4.26971,2.52395-8.0666,1.50909a11.28554,11.28554,0,0,1-6.16876-4.02457,16.03741,16.03741,0,0,1-3.08423-7.5472,14.3534,14.3534,0,0,1,1.66191-9.05637,29.80134,29.80134,0,0,1,8.30315-9.81049,42.10589,42.10589,0,0,1,10.6753-6.28954,62.32924,62.32924,0,0,1,2.37367,9.05637,54.56616,54.56616,0,0,1,.94832,10.06268A31.64856,31.64856,0,0,1,436.98177,254.54814Zm92.99472-75.97189q-6.17316,13.08945-12.575,26.66549a240.3802,240.3802,0,0,1-11.62514,22.1373q-3.80282,6.03811-6.879,7.0445-3.09136,1.01311-5.45638-4.52818a48.89742,48.89742,0,0,1-1.89815-14.59094,78.55785,78.55785,0,0,1,1.89815-17.10634,90.81865,90.81865,0,0,1,4.98085-15.84861,33.06821,33.06821,0,0,1,7.35453-11.32049q6.64049-5.53024,13.28553-4.27676a35.4222,35.4222,0,0,1,13.287,5.78676A46.93339,46.93339,0,0,1,529.97649,178.57625Z" transform="translate(-103.13042 -101)"/><path class="cls-13" d="M387.166,183.45848a95.29173,95.29173,0,0,1,94.038-80.34285c.81747,0,1.63863.0103,2.45841.031a95.37639,95.37639,0,0,1,92.84207,97.63363c-.00393.15845-.01411.31528-.019.4735q1.06347-.89147,2.15076-1.71207a97.38812,97.38812,0,0,0-193.66887-15.74006C385.70635,183.69228,386.43615,183.57546,387.166,183.45848Z" transform="translate(-103.13042 -101)"/><path class="cls-13" d="M574.57778,217.61859a95.39022,95.39022,0,0,1-36.50484,57.16512,90.88179,90.88179,0,0,1-26.7406,16.20546,97.66529,97.66529,0,0,0,65.94441-76.37535Q575.90032,216.08316,574.57778,217.61859Z" transform="translate(-103.13042 -101)"/><path class="cls-13" d="M386.03,195.98859c.03123-1.24239.093-2.47911.17094-3.71254-.71129.08894-1.42258.17823-2.13618.26035-.06708,1.12968-.1219,2.26179-.15059,3.39875a96.709,96.709,0,0,0,14.16545,53.09428,90.28213,90.28213,0,0,1-9.67888-29.25886A95.841,95.841,0,0,1,386.03,195.98859Z" transform="translate(-103.13042 -101)"/><path class="cls-14" d="M376.84888,184.83046c.00971-.06275.01619-.12647.0259-.18916a105.01486,105.01486,0,0,1,7.48833-30.67982,105.99261,105.99261,0,0,0-9.68951,31.08416C375.40108,184.9759,376.12949,184.90685,376.84888,184.83046Z" transform="translate(-103.13042 -101)"/><path class="cls-15" d="M480.231,305.42172A104.72913,104.72913,0,0,1,375.6206,200.81062c0-2.51976.10178-5.01564.27919-7.49088-.71082.05534-1.42188.11069-2.13479.15938-.16586,2.42353-.26023,4.86644-.26023,7.3315a106.71717,106.71717,0,0,0,212.99054,9.73208,104.87474,104.87474,0,0,1-9.74434,30.58909A104.76761,104.76761,0,0,1,480.231,305.42172Z" transform="translate(-103.13042 -101)"/></svg>