<svg id="Camada_1" data-name="Camada 1" xmlns="http://www.w3.org/2000/svg" viewBox="0 0 217.673 123.318"><defs><style>.cls-1{fill:#fff}</style></defs><path class="cls-1" d="M225.74 71.84c-4.66-3.069-9.637-5.905-15.153-7.078-10.094-2.21-18.995 1.804-25.682 9.355q-.321.363-.635.732c-3.491 4.11-8.532 11.801-11.69 16.063-1.782 2.406-3.031 3.545-4.168 3.545q-1.276 0-1.276-5.107a86.948 86.948 0 01.85-10.514c.567-4.403 1.178-6.84 1.842-11.448q.99-6.907 2.408-13.068a58.288 58.288 0 012.833-9.462q.565-1.803-2.55-2.404a7.002 7.002 0 00-5.383.901 11.546 11.546 0 00-2.975 3.155 20.503 20.503 0 00-2.124 4.355 19.335 19.335 0 00-8.783-3.754 19.724 19.724 0 00-9.348.75 20.336 20.336 0 00-10.766 8.863c-.51.83-.97 1.673-1.407 2.522a52.598 52.598 0 01-8.505 10.545 57.189 57.189 0 01-11.615 8.411 89.935 89.935 0 00-5.525-11.865c-.97-1.746-1.93-3.5-2.754-5.33-.366-.813-1.193-3.076-1.6-4.2a1.093 1.093 0 01.22-1.22c3.59-2.924 9.063-8.507 10.989-11.533a9.477 9.477 0 00.975-8.363c-2.326-5.73-9.506-5.902-14.156-3.614-4.531 2.23-7.225 7.314-7.556 12.48a61.545 61.545 0 00.419 10.958c-30.428 11.835-73.446 3.199-73.446 3.199 5.15 1.55 38.287 10.837 74.41.132a77.325 77.325 0 004.141 11.095q2.828 6.16 5.1 12.767a26.552 26.552 0 00-6.8 4.056 20.88 20.88 0 00-5.099 6.158 11.417 11.417 0 00-1.416 6.309 9.127 9.127 0 006.374 8.11 10.482 10.482 0 006.09 0q9.066-2.703 11.192-10.814a27.968 27.968 0 00-.992-16.822 80.534 80.534 0 0012.04-8.562 40.522 40.522 0 004.89-5.194 34.375 34.375 0 00-.927 4.443 29.333 29.333 0 001.133 13.518q2.125 6.309 7.508 8.111 3.964 1.204 6.091-.751a23.49 23.49 0 004.107-5.257 120.662 120.662 0 006.375-12.166q3.253-7.056 6.658-13.97-.572 4.507-.992 9.914-.425 5.407-.425 10.815a79.121 79.121 0 00.567 9.913 18.31 18.31 0 001.983 6.909q1.415 2.408 3.116 2.704a5.168 5.168 0 003.4-.6 15.037 15.037 0 003.4-2.554 27.522 27.522 0 002.832-3.155q1.49-1.866 2.954-3.805c5.423-7.165 10.623-15.429 18.595-20.035 9.686-5.596 20.487-1.728 29.436 3.536 5.28 3.106 6.232 4.193 11.932 6.528-2.454-2.67-11.112-8.207-11.112-8.207zM101.081 37.384c1.603-3.024 6.079-5.233 8.393-1.709 2.167 3.3-1.109 7.993-3.164 10.392-.864 1.008-5.68 6.17-6.212 6.238-.281-1.148-1.678-9.901.983-14.921zm3.448 63.95a6.35 6.35 0 01-3.116 3.905 6.158 6.158 0 01-4.816.9 6.738 6.738 0 01-3.683-2.402 9.576 9.576 0 01-1.842-4.506 8.57 8.57 0 01.993-5.408 17.794 17.794 0 014.957-5.857 25.14 25.14 0 016.374-3.756 37.216 37.216 0 011.417 5.408 32.58 32.58 0 01.567 6.008 18.896 18.896 0 01-.85 5.707zm55.525-45.361l-7.508 15.92a143.528 143.528 0 01-6.941 13.218q-2.27 3.606-4.107 4.207-1.846.604-3.258-2.704a29.195 29.195 0 01-1.134-8.712 46.905 46.905 0 011.134-10.214 54.225 54.225 0 012.974-9.463 19.744 19.744 0 014.39-6.759q3.966-3.302 7.933-2.553a21.15 21.15 0 017.934 3.455 28.023 28.023 0 01-1.417 3.605z" transform="translate(-19.18 -9.654)"/><path class="cls-1" d="M74.786 58.888a56.896 56.896 0 0156.147-47.971c.488 0 .979.006 1.468.018a56.947 56.947 0 0155.434 58.295c-.003.095-.009.188-.012.283q.635-.533 1.285-1.023a58.148 58.148 0 00-115.635-9.398c.441-.065.877-.135 1.313-.204zM186.684 79.284a56.955 56.955 0 01-21.796 34.132 54.263 54.263 0 01-15.966 9.675 58.313 58.313 0 0039.374-45.601q-.822.877-1.612 1.794zM74.107 66.369c.019-.742.056-1.48.102-2.217-.424.053-.85.107-1.275.156-.04.674-.073 1.35-.09 2.03a57.742 57.742 0 008.458 31.7 53.905 53.905 0 01-5.78-17.47 57.224 57.224 0 01-1.415-14.199zM68.625 59.707l.016-.113a62.702 62.702 0 014.471-18.318 63.286 63.286 0 00-5.785 18.56c.434-.042.869-.084 1.298-.13z" transform="translate(-19.18 -9.654)"/><path class="cls-1" d="M130.352 131.709a62.531 62.531 0 01-62.46-62.46c0-1.505.06-2.996.167-4.473-.425.032-.85.066-1.275.095a64.088 64.088 0 00-.155 4.377 63.718 63.718 0 00127.171 5.81 62.618 62.618 0 01-5.818 18.265 62.554 62.554 0 01-57.63 38.386z" transform="translate(-19.18 -9.654)"/></svg>